<?xml version="1.0" encoding="utf-8"?>
<!-- Generator: Adobe Illustrator 19.0.0, SVG Export Plug-In . SVG Version: 6.00 Build 0)  -->
<svg version="1.1" id="Layer_1" xmlns:sketch="http://www.bohemiancoding.com/sketch/ns"
	 xmlns="http://www.w3.org/2000/svg" xmlns:xlink="http://www.w3.org/1999/xlink" x="0px" y="0px" viewBox="132 -50 460 500"
	 style="enable-background:new 132 -50 460 500;" xml:space="preserve">
<style type="text/css">
	.st0{fill:#FFFFFF;}
</style>
<title>following</title>
<desc>Created with Sketch.</desc>
<g id="Page-1" sketch:type="MSPage">
	<g id="following" transform="translate(1.000000, 0.000000)" sketch:type="MSLayerGroup">
		<path id="Oval-12" sketch:type="MSShapeGroup" class="st0" d="M463.2,200c0-57.5-46.6-104.2-104.2-104.2S254.8,142.5,254.8,200
			S301.5,304.2,359,304.2S463.2,257.5,463.2,200z M296.5,200c0-34.5,28-62.5,62.5-62.5s62.5,28,62.5,62.5s-28,62.5-62.5,62.5
			S296.5,234.5,296.5,200z"/>
		<path id="Oval-13" sketch:type="MSShapeGroup" class="st0" d="M421.5,12.5c0-34.5-28-62.5-62.5-62.5s-62.5,28-62.5,62.5
			S324.5,75,359,75S421.5,47,421.5,12.5z M338.2,12.5c0-11.5,9.3-20.8,20.8-20.8s20.8,9.3,20.8,20.8s-9.3,20.8-20.8,20.8
			S338.2,24,338.2,12.5z"/>
		<path id="Oval-14" sketch:type="MSShapeGroup" class="st0" d="M421.5,387.5c0-34.5-28-62.5-62.5-62.5s-62.5,28-62.5,62.5
			s28,62.5,62.5,62.5S421.5,422,421.5,387.5z M338.2,387.5c0-11.5,9.3-20.8,20.8-20.8s20.8,9.3,20.8,20.8s-9.3,20.8-20.8,20.8
			S338.2,399,338.2,387.5z"/>
		<path id="Oval-16" sketch:type="MSShapeGroup" class="st0" d="M559,152c29.9-17.3,40.1-55.5,22.9-85.4
			c-17.3-29.9-55.5-40.1-85.4-22.9c-29.9,17.3-40.1,55.5-22.9,85.4C490.8,159,529.1,169.3,559,152z M517.3,79.8
			c10-5.8,22.7-2.3,28.5,7.6c5.8,10,2.3,22.7-7.6,28.5c-10,5.8-22.7,2.3-28.5-7.6C503.9,98.3,507.3,85.6,517.3,79.8z"/>
		<path id="Oval-15" sketch:type="MSShapeGroup" class="st0" d="M225.6,360.3c29.9-17.3,40.1-55.5,22.9-85.4
			c-17.3-29.9-55.5-40.1-85.4-22.9c-29.9,17.3-40.1,55.5-22.9,85.4C157.5,367.4,195.7,377.6,225.6,360.3z M184,288.2
			c10-5.8,22.7-2.3,28.5,7.6c5.8,10,2.3,22.7-7.6,28.5c-10,5.8-22.7,2.3-28.5-7.6C170.6,306.7,174,293.9,184,288.2z"/>
		<path id="Oval-16_1_" sketch:type="MSShapeGroup" class="st0" d="M496.5,360.3c29.9,17.3,68.1,7,85.4-22.9
			c17.3-29.9,7-68.1-22.9-85.4c-29.9-17.3-68.1-7-85.4,22.9C456.3,304.9,466.6,343.1,496.5,360.3z M538.1,288.2
			c10,5.8,13.4,18.5,7.6,28.5c-5.8,10-18.5,13.4-28.5,7.6c-10-5.8-13.4-18.5-7.6-28.5C515.4,285.8,528.2,282.4,538.1,288.2z"/>
		<path id="Oval-15_1_" sketch:type="MSShapeGroup" class="st0" d="M163.1,152c29.9,17.3,68.1,7,85.4-22.9s7-68.1-22.9-85.4
			s-68.1-7-85.4,22.9S133.2,134.7,163.1,152z M204.8,79.8c10,5.8,13.4,18.5,7.6,28.5c-5.8,10-18.5,13.4-28.5,7.6
			c-10-5.8-13.4-18.5-7.6-28.5C182.1,77.5,194.8,74.1,204.8,79.8z"/>
	</g>
</g>
</svg>
